<?xml version="1.0" encoding="UTF-8" standalone="no"?>
<svg
   xmlns:dc="http://purl.org/dc/elements/1.1/"
   xmlns:cc="http://creativecommons.org/ns#"
   xmlns:rdf="http://www.w3.org/1999/02/22-rdf-syntax-ns#"
   xmlns:svg="http://www.w3.org/2000/svg"
   xmlns="http://www.w3.org/2000/svg"
   xmlns:sodipodi="http://sodipodi.sourceforge.net/DTD/sodipodi-0.dtd"
   xmlns:inkscape="http://www.inkscape.org/namespaces/inkscape"
   width="931.195"
   height="455.21"
   viewBox="0 0 931.195 455.21"
   version="1.1"
   id="svg81"
   sodipodi:docname="Attente.svg"
   inkscape:version="1.0 (262b4497e3, 2020-09-04)">
  <metadata
     id="metadata87">
    <rdf:RDF>
      <cc:Work
         rdf:about="">
        <dc:format>image/svg+xml</dc:format>
        <dc:type
           rdf:resource="http://purl.org/dc/dcmitype/StillImage" />
      </cc:Work>
    </rdf:RDF>
  </metadata>
  <defs
     id="defs85" />
  <sodipodi:namedview
     pagecolor="#ffffff"
     bordercolor="#666666"
     borderopacity="1"
     objecttolerance="10"
     gridtolerance="10"
     guidetolerance="10"
     inkscape:pageopacity="0"
     inkscape:pageshadow="2"
     inkscape:window-width="1920"
     inkscape:window-height="1025"
     id="namedview83"
     showgrid="false"
     inkscape:zoom="1.5957989"
     inkscape:cx="465.5975"
     inkscape:cy="227.605"
     inkscape:window-x="3520"
     inkscape:window-y="45"
     inkscape:window-maximized="1"
     inkscape:current-layer="svg81" />
  <g
     id="Groupe_14"
     data-name="Groupe 14"
     transform="translate(-468.31 -578.166)">
    <path
       id="Tracé_1"
       data-name="Tracé 1"
       d="M655.165,857.692H1305.33L1399.5,1029.53H582.723Z"
       fill="#5fb199" />
    <path
       id="Tracé_2"
       data-name="Tracé 2"
       d="M976.482,939.581,1091.4,989.713a15.723,15.723,0,0,0,16.426-2.386c16.8-14.163,56.166-47.791,58.063-53.481,2.414-7.244-4.008-13.885-4.008-13.885l-169.433,3.818S969.562,936.563,976.482,939.581Z"
       fill="#479c83" />
    <g
       id="Groupe_1"
       data-name="Groupe 1">
      <rect
         id="Rectangle_4"
         data-name="Rectangle 4"
         width="816.782"
         height="3.846"
         transform="translate(582.723 1029.53)"
         fill="#479c83" />
      <path
         id="Tracé_3"
         data-name="Tracé 3"
         d="M1388.763,1009.929h-797.6l3.753-9.325h788.735Z"
         fill="#479c83" />
      <path
         id="Tracé_4"
         data-name="Tracé 4"
         d="M1375.859,986.383H600.834l3.962-9.322H1370.75Z"
         fill="#479c83" />
      <path
         id="Tracé_5"
         data-name="Tracé 5"
         d="M1363.4,963.563H610.533l3.931-9.325H1358.3Z"
         fill="#479c83" />
      <path
         id="Tracé_6"
         data-name="Tracé 6"
         d="M1351.348,941.66H619.767l3.931-9.321h722.494Z"
         fill="#479c83" />
      <path
         id="Tracé_7"
         data-name="Tracé 7"
         d="M1339.346,919.76H628.9l4.024-9.322H1334.25Z"
         fill="#479c83" />
      <path
         id="Tracé_8"
         data-name="Tracé 8"
         d="M1328.27,899.235H637.62l3.961-9.321h681.408Z"
         fill="#479c83" />
      <path
         id="Tracé_9"
         data-name="Tracé 9"
         d="M1317.706,879.1H645.657l3.962-9.322H1312.65Z"
         fill="#479c83" />
    </g>
    <ellipse
       id="Ellipse_1"
       data-name="Ellipse 1"
       cx="74.941"
       cy="30.136"
       rx="74.941"
       ry="30.136"
       transform="translate(730.914 883.838)"
       fill="#479c83" />
    <g
       id="Groupe_2"
       data-name="Groupe 2">
      <path
         id="Tracé_10"
         data-name="Tracé 10"
         d="M824.53,893.623H802.142a5.664,5.664,0,0,0-1.505.2l-16.944,4.67a5.655,5.655,0,0,0-2.8,1.774l-3.11,3.631a5.662,5.662,0,0,0,0,7.367l3.11,3.63a5.663,5.663,0,0,0,2.8,1.775l16.944,4.67a5.664,5.664,0,0,0,1.505.2H824.53a5.657,5.657,0,0,0,1.5-.2l16.945-4.67a5.668,5.668,0,0,0,2.8-1.775l3.11-3.63a5.662,5.662,0,0,0,0-7.367l-3.11-3.631a5.66,5.66,0,0,0-2.8-1.774l-16.945-4.67A5.657,5.657,0,0,0,824.53,893.623Z"
         fill="#824c21" />
      <rect
         id="Rectangle_5"
         data-name="Rectangle 5"
         width="71.425"
         height="4.953"
         transform="translate(777.624 902.937)"
         fill="#824c21" />
      <path
         id="Tracé_11"
         data-name="Tracé 11"
         d="M824.53,889.137H802.142a5.664,5.664,0,0,0-1.505.2l-16.944,4.67a5.663,5.663,0,0,0-2.8,1.775l-3.11,3.63a5.662,5.662,0,0,0,0,7.367l3.11,3.63a5.657,5.657,0,0,0,2.8,1.775l16.944,4.67a5.664,5.664,0,0,0,1.505.2H824.53a5.657,5.657,0,0,0,1.5-.2l16.945-4.67a5.661,5.661,0,0,0,2.8-1.775l3.11-3.63a5.662,5.662,0,0,0,0-7.367l-3.11-3.63a5.668,5.668,0,0,0-2.8-1.775l-16.945-4.67A5.657,5.657,0,0,0,824.53,889.137Z"
         fill="#8d562b" />
    </g>
    <rect
       id="Rectangle_6"
       data-name="Rectangle 6"
       width="10.866"
       height="101.629"
       transform="translate(807.903 801.725)"
       fill="#824c21" />
    <g
       id="Groupe_3"
       data-name="Groupe 3">
      <path
         id="Tracé_12"
         data-name="Tracé 12"
         d="M843.174,788.259H783.5a11.808,11.808,0,0,0-2.073.184L735.266,796.7a11.772,11.772,0,0,0-5.039,2.206l-4.442,3.365a11.78,11.78,0,0,0,0,18.777l4.442,3.365a11.772,11.772,0,0,0,5.039,2.206l46.158,8.256a11.813,11.813,0,0,0,2.073.184h59.677a11.816,11.816,0,0,0,2.074-.184l46.158-8.256a11.772,11.772,0,0,0,5.039-2.206l4.442-3.365a11.78,11.78,0,0,0,0-18.777l-4.442-3.365a11.772,11.772,0,0,0-5.039-2.206l-46.158-8.256A11.81,11.81,0,0,0,843.174,788.259Z"
         fill="#824c21" />
      <rect
         id="Rectangle_7"
         data-name="Rectangle 7"
         width="184.432"
         height="8.301"
         transform="translate(721.12 803.87)"
         fill="#824c21" />
      <path
         id="Tracé_13"
         data-name="Tracé 13"
         d="M843.174,780.741H783.5a11.808,11.808,0,0,0-2.073.184l-46.158,8.256a11.772,11.772,0,0,0-5.039,2.206l-4.442,3.365a11.78,11.78,0,0,0,0,18.777l4.442,3.365a11.772,11.772,0,0,0,5.039,2.206l46.158,8.256a11.808,11.808,0,0,0,2.073.184h59.677a11.81,11.81,0,0,0,2.074-.184l46.158-8.256a11.772,11.772,0,0,0,5.039-2.206l4.442-3.365a11.78,11.78,0,0,0,0-18.777l-4.442-3.365a11.772,11.772,0,0,0-5.039-2.206l-46.158-8.256A11.81,11.81,0,0,0,843.174,780.741Z"
         fill="#8d562b" />
    </g>
    <ellipse
       id="Ellipse_2"
       data-name="Ellipse 2"
       cx="34.343"
       cy="11.166"
       rx="34.343"
       ry="11.166"
       transform="translate(743.28 786.801)"
       fill="#824c21" />
    <path
       id="Tracé_14"
       data-name="Tracé 14"
       d="M807.9,835.058v20.385l10.866-7.592V835.058Z"
       fill="#723a16" />
    <path
       id="Tracé_15"
       data-name="Tracé 15"
       d="M802.841,716.932h-42.51c-4.693,0-9.219,4.145-12.366,7.626a46.8,46.8,0,0,0-12.04,28.847A45.939,45.939,0,0,0,764.4,798.38a12.871,12.871,0,0,0,4.881.944h25.059a12.949,12.949,0,0,0,4.918-.96,45.944,45.944,0,0,0,28.494-42.5,44.763,44.763,0,0,0-12.837-31.626C811.73,721,807.383,716.932,802.841,716.932Z"
       fill="#e8e8e8" />
    <path
       id="Tracé_16"
       data-name="Tracé 16"
       d="M744.973,736.071a51.4,51.4,0,0,0-4.562,17.905A41.449,41.449,0,0,0,766.1,794.553a11.615,11.615,0,0,0,4.4.851H793.11a11.669,11.669,0,0,0,4.436-.866A41.45,41.45,0,0,0,823.254,756.2c0-6.52-2.547-14.247-4.858-19.8C815.56,729.573,748.4,729.168,744.973,736.071Z"
       fill="#6e9be0" />
    <path
       id="Tracé_18"
       data-name="Tracé 18"
       d="M790.758,791.49s-5.151-3.041,1.6-9.206,3.8-13.513,6.25-17.482,7.854,3.716,3.969,10.726-7.094,8.614-7.01,11.232.254,4.73.254,4.73Z"
       fill="#479c83" />
    <path
       id="Tracé_19"
       data-name="Tracé 19"
       d="M789.785,791.49s-1.882-1.014-.953-7.094,2.5-4.983.953-8.108-5.335,3.279-5.335,8.276c0,5.237,3.2,6.926,3.2,6.926Z"
       fill="#479c83" />
    <ellipse
       id="Ellipse_3"
       data-name="Ellipse 3"
       cx="27.753"
       cy="7.365"
       rx="27.753"
       ry="7.365"
       transform="translate(753.867 713.855)"
       fill="#f7f7f7" />
    <ellipse
       id="Ellipse_4"
       data-name="Ellipse 4"
       cx="37.158"
       cy="12.293"
       rx="37.158"
       ry="12.293"
       transform="translate(744.453 725.839)"
       fill="#8aaee6" />
    <path
       id="Tracé_20"
       data-name="Tracé 20"
       d="M765.078,727.123a94.4,94.4,0,0,0,33.076,0,107.064,107.064,0,0,0-33.076,0Z"
       fill="#a6c1ec" />
    <path
       id="Tracé_21"
       data-name="Tracé 21"
       d="M804.133,731.791c7.07,3.658,11.655,16.86,10.3,20.761s-4.222,1.7-5.742-4.883-5.912-13.175-7.095-14.864S801.563,730.462,804.133,731.791Z"
       fill="#f7f7f7" />
    <g
       id="Groupe_5"
       data-name="Groupe 5">
      <path
         id="Tracé_22"
         data-name="Tracé 22"
         d="M1004.59,925.917s-5.655,3.6-6.3,3.6a79.177,79.177,0,0,1-9.51-3.6c-.771-.515-3.727-12.594-3.727-12.594s13.108-1.157,14.522,0S1004.59,925.917,1004.59,925.917Z"
         fill="#1e3d3a" />
      <path
         id="Tracé_23"
         data-name="Tracé 23"
         d="M1094.032,762.2s-3.855-6.94-33.155-6.426-56.8,1.8-79.933,6.426-27.244,13.622-26.987,27.5,12.594,77.619,16.706,88.928,9.253,33.156,11.566,34.441a18.5,18.5,0,0,0,6.682,2.056c2.828.514,95.868-104.607,101.266-120.542S1094.032,762.2,1094.032,762.2Z"
         fill="#8d3f2b" />
      <path
         id="Tracé_24"
         data-name="Tracé 24"
         d="M988.911,915.207s-11.137-115.315-15.592-124.054-11.823-10.966-14.907,0,5.312,45.578,8.91,61.513,14.393,58.6,15.592,60.143S988.055,916.921,988.911,915.207Z"
         fill="#823521" />
      <path
         id="Tracé_25"
         data-name="Tracé 25"
         d="M1111.259,888.392s4.413,77.362,2.6,78.647-6.75,2.314-11.682,0S992.888,922.061,991.33,921.033s-5.192-38.3-5.451-39.581-5.711-20.561-5.192-22.36a5.447,5.447,0,0,1,2.336-2.827l6.49-3.342S1109.182,870.4,1111.259,888.392Z"
         fill="#8d3f2b" />
      <path
         id="Tracé_26"
         data-name="Tracé 26"
         d="M1109.124,967.468c-1.623-.464-4.27-65.112-6.59-68.024s-120.72-39.067-120.891-39.753a1.792,1.792,0,0,1,1.2-2.4c1.542-.643,2.57-1.028,2.57-1.028l124.911,30.071s3.213,78.9,3.085,79.418S1110.623,967.9,1109.124,967.468Z"
         fill="#823521" />
      <path
         id="Tracé_27"
         data-name="Tracé 27"
         d="M1084.77,757.7c6.425,4.654,2.965,7.064-2.689,8.092s-20.648,3.341-28.358,10.281-13.442,16.449-38.116,26.473S980.652,820.8,980.652,820.8l9,24.417,98.6-49.348s4.369-29.214,4.883-33.069S1084.77,757.7,1084.77,757.7Z"
         fill="#823521" />
      <path
         id="Tracé_28"
         data-name="Tracé 28"
         d="M1233.207,781.729s17.885-42.261,1.036-69.538c-15.257-24.7-45.5-38.924-92.534-32.755s-49.862,52.432-50.376,64,0,39.581-5.4,50.633L1192.878,818Z"
         fill="#8d3f2b" />
      <path
         id="Tracé_29"
         data-name="Tracé 29"
         d="M1196.3,815.586s-105.99-22.162-109.46-21.777-69.78,12.722-86.358,19.276-21.589,7.325-22.36,10.41,1.542,28.143,3.469,30.842,96.382,33.541,107.948,35.854,23.132,1.542,25.83-2.7,72.962-29.385,74.889-36.711S1196.3,815.586,1196.3,815.586Z"
         fill="#8d3f2b" />
      <path
         id="Tracé_30"
         data-name="Tracé 30"
         d="M1175.378,681.257c-22.724-3.526-40.352,1.263-54.745,12.058s-18.762,26.73-21.846,35.468-6.736,46.426-6.811,47.2a402.061,402.061,0,0,1,2.26-47.882c2.913-24.417,22.018-38.715,31.366-43.607,9.6-5.022,31.282-7.25,48.748-5.022S1182.146,682.308,1175.378,681.257Z"
         fill="#914633" />
      <path
         id="Tracé_31"
         data-name="Tracé 31"
         d="M1123.3,802.548c-.872-2.57-35.569-9-36.469-8.739s-.039-2.5,9.981-1.114c10.238,1.414,27.444,4.949,31.07,6.7Z"
         fill="#823521" />
      <path
         id="Tracé_32"
         data-name="Tracé 32"
         d="M1195.375,819.4c-1.713,1.542-94.651,34.982-94.48,38.751s1.2,29.643,2.742,30.671,6-.857,6.682-1.885c.172-.257,79.967-32.716,79.934-36.154C1190.157,840.469,1195.375,819.4,1195.375,819.4Z"
         fill="#823521" />
      <g
         id="Groupe_4"
         data-name="Groupe 4">
        <path
           id="Tracé_33"
           data-name="Tracé 33"
           d="M1181.836,679.469Z"
           fill="#823521" />
        <path
           id="Tracé_34"
           data-name="Tracé 34"
           d="M1233.207,781.729,1226.41,835l-39.955,21.1c4.409-15.2,14.691-95.944,21.051-112.872,10.14-26.994,8.545-54.117-17.033-61.973,20.193,5.165,34.656,16.178,43.77,30.934C1251.092,739.468,1233.207,781.729,1233.207,781.729Z"
           fill="#823521" />
      </g>
      <path
         id="Tracé_35"
         data-name="Tracé 35"
         d="M1097.159,857.978s-108.633-30.334-112.1-29.646.9,19.965-1.156,20.222-3.248-22.667-3.248-25.212,108.968,26.42,114.622,26.416,12.166-3.6,12.166-1.2c0,2.227-4.3,1.935-6.548,4.369C1098.888,855.1,1099.729,857.635,1097.159,857.978Z"
         fill="#914633" />
      <path
         id="Tracé_36"
         data-name="Tracé 36"
         d="M1223.958,776.144s11.141-18.077,7.622-47.189c-2.742-22.677-14.77-34.491-21.221-39.778,0,0,19.444,12.8,22.163,38.124,3.513,32.71-7.326,49.1-7.326,49.1l-6.287,62.31-1.565.826Z"
         fill="#762c19" />
      <path
         id="Tracé_37"
         data-name="Tracé 37"
         d="M1112.152,932.856a6.109,6.109,0,0,1-6.45,2.827c-6.892-1.175-119.171-44.211-119.171-44.211l.1.971s111.032,42.075,119.66,44.8c2.972.938,5.868-2.2,5.868-2.2Z"
         fill="#823521" />
      <path
         id="Tracé_38"
         data-name="Tracé 38"
         d="M1226.41,835s-10.879,58.644-12.447,61.416-100.555,69.334-100.555,69.334l-3.089-78.819Z"
         fill="#823521" />
    </g>
    <g
       id="Groupe_6"
       data-name="Groupe 6">
      <path
         id="Tracé_39"
         data-name="Tracé 39"
         d="M1139.575,966.4s-1.285,6.939-1.8,7.068-8.739,6.939-9.51,6.811-12.979-7.453-12.979-7.453v-7.454Z"
         fill="#1e3d3a" />
      <path
         id="Tracé_40"
         data-name="Tracé 40"
         d="M1202.315,912.93s-1.285,6.939-1.8,7.068-8.739,8.745-9.51,8.616-12.979-7.452-12.979-7.452V911.9Z"
         fill="#1e3d3a" />
      <path
         id="Tracé_41"
         data-name="Tracé 41"
         d="M1244.952,828.332c3.98-23.95,4.969-36.836-8.738-46.6s-34.955-6.682-47.634-4.283-45.236,10.28-58.772,17.82-21.418,19.533-22.275,31.013,4.455,111.546,4.455,125.6.172,14.051,1.714,15.593a3.156,3.156,0,0,0,3.427.685,12.188,12.188,0,0,0,2.57,1.2c.514,0,6.682,1.542,6.682,1.542s2.4,6.854,8.225,2.913,68.024-54.317,83.445-75.906S1242.1,845.469,1244.952,828.332Z"
         fill="#8d3f2b" />
      <path
         id="Tracé_42"
         data-name="Tracé 42"
         d="M1118.357,968.415s-1.285-110.865-2.313-129.371,5.14-24.673,16.963-19.019,15.807,13.108,16.964,50.119c1.013,32.417-16.643,87.314-21.041,100.441a3,3,0,0,1-4.01,1.81A25.157,25.157,0,0,1,1118.357,968.415Z"
         fill="#823521" />
      <path
         id="Tracé_43"
         data-name="Tracé 43"
         d="M1134.608,973.808c-3.805,2.574-6.147.543-7.315-1.176h0c3.779,2.638,10.917-1.531,19.352-14.074s21.075-58.729,28.015-63.24-8.867,38.052-5.012,34.2,15.421-11.566,28.529-28.144,49.146-100.617,43.305-114.945c8.067,9.242,6.847,21.595,3.472,41.906-2.847,17.137-11.48,47.98-26.9,69.569S1140.434,969.867,1134.608,973.808Z"
         fill="#823521" />
      <path
         id="Tracé_44"
         data-name="Tracé 44"
         d="M1153.6,820.111c-1.566-6.6-18.676-16.621-24.673-16.107s30.741-21.761,80.774-27.929c-15.592-1.061-60.828,6.682-87.628,26.473-11.775,8.7-10.795,16.063-9.51,14.778s2.056-10.923,15.164-8.61,23.646,14.265,24.8,14.522S1154.411,823.538,1153.6,820.111Z"
         fill="#914633" />
      <path
         id="Tracé_45"
         data-name="Tracé 45"
         d="M1247.4,801.5s-74.8,34.456-81.736,37.54-17.861,3.59-17.861,3.59l.234,1.529s14.286-1.275,19.94-3.582,79.473-38.384,79.473-38.384Z"
         fill="#823521" />
    </g>
    <g
       id="Groupe_7"
       data-name="Groupe 7">
      <ellipse
         id="Ellipse_5"
         data-name="Ellipse 5"
         cx="30.578"
         cy="9.942"
         rx="30.578"
         ry="9.942"
         transform="translate(491.274 858.557)"
         fill="#ad7d48" />
      <path
         id="Tracé_46"
         data-name="Tracé 46"
         d="M510.971,769.162s-57.657,102.985,10.268,102.985,14.079-102.985,14.079-102.985C533.718,764.631,512.482,764.942,510.971,769.162Z"
         fill="#e8e8e8" />
      <ellipse
         id="Ellipse_6"
         data-name="Ellipse 6"
         cx="10.189"
         cy="2.488"
         rx="10.189"
         ry="2.488"
         transform="translate(513.341 766.63)"
         fill="#706f6f" />
      <path
         id="Tracé_47"
         data-name="Tracé 47"
         d="M493.256,823.912c-5.139,22.951-2.6,45.691,27.681,45.691,11.929,0,19.67-3.54,24.426-9.222C519.65,867.445,486.364,852.312,493.256,823.912Z"
         fill="#dadada" />
      <path
         id="Tracé_48"
         data-name="Tracé 48"
         d="M520.8,770.006c-.889-7.048-14.454-130.726-14.454-130.726"
         fill="none"
         stroke="#5fb199"
         stroke-linecap="round"
         stroke-miterlimit="10"
         stroke-width="2.87" />
      <line
         id="Ligne_1"
         data-name="Ligne 1"
         y1="172.379"
         x2="2.014"
         transform="translate(524.241 597.627)"
         fill="none"
         stroke="#5fb199"
         stroke-linecap="round"
         stroke-miterlimit="10"
         stroke-width="2.87" />
      <path
         id="Tracé_49"
         data-name="Tracé 49"
         d="M526.715,770.006s11.67-97.3,22.333-109.579"
         fill="none"
         stroke="#5fb199"
         stroke-linecap="round"
         stroke-miterlimit="10"
         stroke-width="2.87" />
      <path
         id="Tracé_50"
         data-name="Tracé 50"
         d="M522.258,769.366s-13.8-55.431-29.528-66.645"
         fill="none"
         stroke="#5fb199"
         stroke-linecap="round"
         stroke-miterlimit="10"
         stroke-width="2.87" />
      <path
         id="Tracé_51"
         data-name="Tracé 51"
         d="M494.622,700.557c-5.006-19.634-26.882-10.307-26.3,2.132.561,12.015,9.419,13.506,15.994,12.085C493.776,712.728,496.044,706.133,494.622,700.557Z"
         fill="#5fb199" />
      <path
         id="Tracé_52"
         data-name="Tracé 52"
         d="M527.582,600.781c6.846-18.315-19.771-28.534-26.6-18.95-6.6,9.256,1.047,17.259,8.226,21.345C519.533,609.054,525.638,605.982,527.582,600.781Z"
         fill="#5fb199" />
      <path
         id="Tracé_53"
         data-name="Tracé 53"
         d="M572.464,687.694c4.786-16.143-21.731-28.1-27.353-19.974-5.43,7.854,2.68,15.941,9.961,20.387C565.549,694.505,571.1,692.279,572.464,687.694Z"
         fill="#5fb199" />
      <path
         id="Tracé_54"
         data-name="Tracé 54"
         d="M502.653,716.929c-12.377-2.492-19.691,18.22-13.258,21.884,6.213,3.539,11.764-3.1,14.642-8.863C508.177,721.653,506.168,717.636,502.653,716.929Z"
         fill="#5fb199" />
      <path
         id="Tracé_55"
         data-name="Tracé 55"
         d="M558.765,728.837c-2.581-7.259-23.559-11.709-24.3-7.954-.711,3.627,7.246,6.939,13.41,8.673C556.749,732.051,559.5,730.9,558.765,728.837Z"
         fill="#5fb199" />
      <path
         id="Tracé_56"
         data-name="Tracé 56"
         d="M534.36,650.25c-4.463-8.133-25.881-5.449-25.567-.423.3,4.856,8.868,5.886,15.278,5.634C533.293,655.1,535.627,652.56,534.36,650.25Z"
         fill="#5fb199" />
      <path
         id="Tracé_57"
         data-name="Tracé 57"
         d="M541.72,680.274c1.258-9.192-17.547-19.789-20.288-15.564-2.648,4.081,3.62,10.009,8.919,13.623C537.976,683.535,541.363,682.884,541.72,680.274Z"
         fill="#5fb199" />
      <path
         id="Tracé_58"
         data-name="Tracé 58"
         d="M507.41,639.761c1.58-12.526-19.611-18.306-22.8-11.623-3.076,6.456,3.948,11.507,9.91,13.955C503.1,645.616,506.961,643.319,507.41,639.761Z"
         fill="#5fb199" />
      <path
         id="Tracé_59"
         data-name="Tracé 59"
         d="M506.432,656.066c-9.054-3.709-33.522,11.762-30.859,15.576,2.572,3.683,13.315-.826,20.889-5.016C507.359,660.6,509,657.119,506.432,656.066Z"
         fill="#5fb199" />
      <path
         id="Tracé_60"
         data-name="Tracé 60"
         d="M578.938,645.1c-9.054-3.709-33.522,11.762-30.859,15.575,2.572,3.684,13.315-.826,20.889-5.015C579.865,649.636,581.509,646.158,578.938,645.1Z"
         fill="#5fb199" />
      <path
         id="Tracé_61"
         data-name="Tracé 61"
         d="M560.833,612.806c-6.445-7.36-35.247-4.442-34.567.16.658,4.445,12.284,5.206,20.931,4.838C559.64,617.275,562.663,614.9,560.833,612.806Z"
         fill="#5fb199" />
    </g>
  </g>
  <path
     id="Tracé_79"
     data-name="Tracé 79"
     d="m 307.80101,191.73127 c 3.216,1.511 7.492,0.751 8.1,-1.132 -0.8,-4.542 -3.575,-7.056 -6.726,-7.972 -0.766,-1.112 -2.272,-3.016 -3.866,-3.455 -1.8,-0.495 -0.89,2.042 -0.421,3.146 -3.32,0.45 -6.278,2.456 -7.073,5.541 v 0 c 0,0 -1.31,-5.906 -4.092,-5.972 -2.782,-0.066 -1.736,4.159 2.675,7.875 0,0 -6.386,6.647 -3.425,7.225 2.818,0.55 4.632,-1.875 5.443,-4.236 a 7.924,7.924 0 0 0 3.632,3.3 c -1.811,0.767 -4.04,1.9 -2.083,2.025 a 3.865,3.865 0 0 0 3.391,-1.5 13.9,13.9 0 0 0 8.937,-0.029 4.813,4.813 0 0 1 -5.339,-4.189 0.6,0.6 0 0 1 0.847,-0.627 z m 4.379,-4.785 a 4.378,4.378 0 0 1 0.279,2.213 c -0.09,0.862 -1.481,0.913 -1.619,0.417 a 8.164,8.164 0 0 1 -0.286,-2.269 0.873,0.873 0 0 1 1.626,-0.361 z m -4.512,0.066 c 0.263,-0.806 1.81,-0.8 1.941,0.17 a 8.277,8.277 0 0 1 0,2.495 c -0.088,0.556 -1.711,0.691 -1.941,-0.231 a 4.457,4.457 0 0 1 0,-2.434 z"
     fill="#f9d649" />
</svg>
