<svg xmlns="http://www.w3.org/2000/svg" width="166.229" height="182.35" viewBox="0 0 166.229 182.35">
  <g id="Groupe_14" data-name="Groupe 14" transform="translate(-1697.312 -560.055)">
    <rect id="Rectangle_14" data-name="Rectangle 14" width="160.213" height="167.179" rx="3.38" transform="translate(1697.312 575.227)" fill="#e9b432"/>
    <rect id="Rectangle_15" data-name="Rectangle 15" width="160.213" height="167.179" rx="3.38" transform="translate(1699.387 572.682)" fill="#e8e8e8"/>
    <circle id="Ellipse_8" data-name="Ellipse 8" cx="3.096" cy="3.096" r="3.096" transform="matrix(0.995, -0.105, 0.105, 0.995, 1705.512, 673.864)" fill="#f9d649"/>
    <circle id="Ellipse_9" data-name="Ellipse 9" cx="3.096" cy="3.096" r="3.096" transform="matrix(0.995, -0.105, 0.105, 0.995, 1714.964, 673.833)" fill="#f9d649"/>
    <circle id="Ellipse_10" data-name="Ellipse 10" cx="3.096" cy="3.096" r="3.096" transform="matrix(0.995, -0.105, 0.105, 0.995, 1724.415, 673.802)" fill="#f9d649"/>
    <circle id="Ellipse_11" data-name="Ellipse 11" cx="3.096" cy="3.096" r="3.096" transform="matrix(0.995, -0.105, 0.105, 0.995, 1733.867, 673.771)" fill="#f9d649"/>
    <circle id="Ellipse_12" data-name="Ellipse 12" cx="3.096" cy="3.096" r="3.096" transform="matrix(0.995, -0.105, 0.105, 0.995, 1743.318, 673.741)" fill="#f9d649"/>
    <circle id="Ellipse_13" data-name="Ellipse 13" cx="3.096" cy="3.096" r="3.096" transform="matrix(0.995, -0.105, 0.105, 0.995, 1752.77, 673.71)" fill="#f9d649"/>
    <circle id="Ellipse_14" data-name="Ellipse 14" cx="3.096" cy="3.096" r="3.096" transform="matrix(0.995, -0.105, 0.105, 0.995, 1762.221, 673.679)" fill="#f9d649"/>
    <circle id="Ellipse_15" data-name="Ellipse 15" cx="3.096" cy="3.096" r="3.096" transform="matrix(0.995, -0.105, 0.105, 0.995, 1771.673, 673.649)" fill="#f9d649"/>
    <circle id="Ellipse_16" data-name="Ellipse 16" cx="3.096" cy="3.096" r="3.096" transform="matrix(0.995, -0.105, 0.105, 0.995, 1837.834, 673.434)" fill="#f9d649"/>
    <circle id="Ellipse_17" data-name="Ellipse 17" cx="3.096" cy="3.096" r="3.096" transform="matrix(0.995, -0.105, 0.105, 0.995, 1847.285, 673.403)" fill="#f9d649"/>
    <circle id="Ellipse_18" data-name="Ellipse 18" cx="3.096" cy="3.096" r="3.096" transform="matrix(0.995, -0.105, 0.105, 0.995, 1856.737, 673.372)" fill="#f9d649"/>
    <circle id="Ellipse_19" data-name="Ellipse 19" cx="3.096" cy="3.096" r="3.096" transform="matrix(0.995, -0.105, 0.105, 0.995, 1781.124, 673.618)" fill="#f9d649"/>
    <circle id="Ellipse_20" data-name="Ellipse 20" cx="3.096" cy="3.096" r="3.096" transform="matrix(0.995, -0.105, 0.105, 0.995, 1790.576, 673.587)" fill="#f9d649"/>
    <circle id="Ellipse_21" data-name="Ellipse 21" cx="3.096" cy="3.096" r="3.096" transform="matrix(0.995, -0.105, 0.105, 0.995, 1800.027, 673.556)" fill="#f9d649"/>
    <circle id="Ellipse_22" data-name="Ellipse 22" cx="3.096" cy="3.096" r="3.096" transform="matrix(0.995, -0.105, 0.105, 0.995, 1809.479, 673.526)" fill="#f9d649"/>
    <circle id="Ellipse_23" data-name="Ellipse 23" cx="3.096" cy="3.096" r="3.096" transform="matrix(0.995, -0.105, 0.105, 0.995, 1818.93, 673.495)" fill="#f9d649"/>
    <circle id="Ellipse_24" data-name="Ellipse 24" cx="3.096" cy="3.096" r="3.096" transform="matrix(0.995, -0.105, 0.105, 0.995, 1828.382, 673.464)" fill="#f9d649"/>
    <rect id="Rectangle_16" data-name="Rectangle 16" width="13.158" height="23.889" transform="translate(1708.901 562.944) rotate(9)" fill="#d3d3d3"/>
    <rect id="Rectangle_17" data-name="Rectangle 17" width="13.158" height="23.676" transform="translate(1832.389 566.634) rotate(-30)" fill="#d3d3d3"/>
  </g>
</svg>
